# xmcd
#
# Track frame offsets:
#	150
#	9964
#	24677
#	40143
#	56404
#	72341
#	87335
#	100534
#	116556
#	132507
#	150458
#	169809
#
# Disc length: 2397 seconds
#
# Revision: 1
# Processed by: cddbd v1.5.2PL0 Copyright (c) Steve Scherf et al.
# Submitted via: audiograbber 1.83.01
#
DISCID=91095b0c
DTITLE=Ray Charles - Modern Sounds In Country and Western, Vol.1
DYEAR=1900
DGENRE=
TTITLE0=Bye Bye Love
TTITLE1=You Don't Know Me
TTITLE2=Half As Much
TTITLE3=I Love You So Much It Hurts
TTITLE4=Just A Little Lovin'
TTITLE5=Born To Lose
TTITLE6=Worried Mind
TTITLE7=It Makes No Difference Now
TTITLE8=You Win Again
TTITLE9=Careless Love
TTITLE10=I Can't Stop Loving You
TTITLE11=Hey, Good Lookin'
EXTD=
EXTT0=
EXTT1=
EXTT2=
EXTT3=
EXTT4=
EXTT5=
EXTT6=
EXTT7=
EXTT8=
EXTT9=
EXTT10=
EXTT11=
PLAYORDER=
